<svg width="24" height="24" viewBox="0 0 24 24" fill="none" xmlns="http://www.w3.org/2000/svg">
    <path d="M13.41 12.0001L17.71 7.71012C17.8983 7.52182 18.0041 7.26643 18.0041 7.00012C18.0041 6.73382 17.8983 6.47843 17.71 6.29012C17.5217 6.10182 17.2663 5.99603 17 5.99603C16.7337 5.99603 16.4783 6.10182 16.29 6.29012L12 10.5901L7.71 6.29012C7.5217 6.10182 7.2663 5.99603 7 5.99603C6.7337 5.99603 6.4783 6.10182 6.29 6.29012C6.1017 6.47843 5.99591 6.73382 5.99591 7.00012C5.99591 7.26643 6.1017 7.52182 6.29 7.71012L10.59 12.0001L6.29 16.2901C6.19627 16.3831 6.12188 16.4937 6.07111 16.6155C6.02034 16.7374 5.9942 16.8681 5.9942 17.0001C5.9942 17.1321 6.02034 17.2628 6.07111 17.3847C6.12188 17.5066 6.19627 17.6172 6.29 17.7101C6.38296 17.8039 6.49356 17.8782 6.61542 17.929C6.73728 17.9798 6.86799 18.0059 7 18.0059C7.13201 18.0059 7.26272 17.9798 7.38458 17.929C7.50644 17.8782 7.61704 17.8039 7.71 17.7101L12 13.4101L16.29 17.7101C16.383 17.8039 16.4936 17.8782 16.6154 17.929C16.7373 17.9798 16.868 18.0059 17 18.0059C17.132 18.0059 17.2627 17.9798 17.3846 17.929C17.5064 17.8782 17.617 17.8039 17.71 17.7101C17.8037 17.6172 17.8781 17.5066 17.9289 17.3847C17.9797 17.2628 18.0058 17.1321 18.0058 17.0001C18.0058 16.8681 17.9797 16.7374 17.9289 16.6155C17.8781 16.4937 17.8037 16.3831 17.71 16.2901L13.41 12.0001Z" fill="#999999"/>
</svg>
